<svg width="123" height="103" viewBox="0 0 123 103" fill="none" xmlns="http://www.w3.org/2000/svg">
<g clip-path="url(#clip0_3_5)">
<path fill-rule="evenodd" clip-rule="evenodd" d="M122.172 49.7317L121.849 52.3723L121.234 57.5467C119.412 72.9633 119.178 74.9432 114.804 77.0475C111.893 78.446 108.903 79.6748 105.85 80.7276C101.057 82.438 98.6502 83.297 91.6612 90.375C80.9133 101.253 67.1359 102.279 61.6768 102.216L61.4989 102.213L61.321 102.216L60.8737 102.218C55.1604 102.218 41.8024 100.965 31.3366 90.375C24.345 83.2945 21.9382 82.4354 17.145 80.725C14.0914 79.6745 11.1018 78.4465 8.19135 77.0475C3.82 74.9432 3.58364 72.9659 1.76394 57.5544L1.14891 52.3723C1.03962 51.4497 0.930338 50.5704 0.826137 49.7317C-0.337861 40.3206 -0.975772 35.1385 3.86829 32.0836C4.75018 31.5271 5.76423 30.9781 6.9384 30.3453C10.9717 28.1672 16.4944 25.1886 21.1071 19.2593C22.2178 17.615 34.699 0 61.4989 0C88.2988 0 100.783 17.6125 101.888 19.2568C106.501 25.1861 112.021 28.1672 116.057 30.3427C117.231 30.9781 118.248 31.5245 119.129 32.0836C123.976 35.1385 123.336 40.3206 122.172 49.7317ZM61.4989 5.09567C39.3804 5.09567 28.0174 18.5198 25.7428 21.5365C34.0128 30.142 47.17 35.23 61.4989 35.23C75.8303 35.23 88.9901 30.142 97.26 21.5314C94.9778 18.4511 83.7902 5.09567 61.4989 5.09567ZM116.42 36.394C115.683 35.9289 114.738 35.4206 113.645 34.8284C109.609 32.6479 103.588 29.3897 98.4342 23.0741C89.7957 31.921 76.2268 37.1386 61.5014 37.1386C46.7786 37.1386 33.2097 31.9235 24.5686 23.0741C19.4145 29.3871 13.3963 32.6479 9.35788 34.8284C8.26505 35.4181 7.31962 35.9289 6.58259 36.394C4.57482 37.6596 4.83405 40.6484 5.8786 49.1039C5.9828 49.9477 6.09208 50.8296 6.20137 51.7598C6.4301 53.6557 6.63342 55.3788 6.81895 56.9495C8.50395 71.2173 8.67423 71.6189 10.3974 72.4474C14.0418 74.201 16.5986 75.1134 18.8554 75.9191C24.0273 77.7642 27.1482 78.8799 34.9557 86.7839C44.3312 96.2763 56.4795 97.1887 61.2625 97.1125H61.7378C66.5285 97.1862 78.6691 96.2738 88.0446 86.7839C95.8521 78.8799 98.973 77.7642 104.145 75.9191C106.402 75.1134 108.958 74.201 112.603 72.4474C114.326 71.6189 114.496 71.2173 116.181 56.9419L116.796 51.7572L117.122 49.1014C118.169 40.6484 118.428 37.6596 116.42 36.394ZM84.146 64.7544C77.9499 64.7544 72.9101 59.7349 72.9101 53.5693C72.9101 47.4011 77.9499 42.3817 84.146 42.3817C90.3421 42.3817 95.3819 47.4011 95.3819 53.5693C95.3844 59.7349 90.3421 64.7544 84.146 64.7544ZM84.146 44.2904C79.0021 44.2904 74.8162 48.4533 74.8162 53.5668C74.8162 58.6802 79.0021 62.8406 84.146 62.8406C89.29 62.8406 93.4758 58.6802 93.4758 53.5668C93.4758 48.4508 89.29 44.2904 84.146 44.2904ZM84.146 59.9027C80.6184 59.9027 77.7567 57.0664 77.7567 53.5642C77.7567 50.0621 80.6159 47.2258 84.146 47.2258C87.6761 47.2258 90.5353 50.0621 90.5353 53.5642C90.5353 57.0664 87.6761 59.9027 84.146 59.9027ZM61.4989 81.0402C58.9345 81.0402 53.8999 78.6842 53.8999 76.5163H69.1004C69.1004 78.4936 64.0658 81.0402 61.4989 81.0402ZM39.3092 64.7544C33.1131 64.7544 28.0733 59.7349 28.0733 53.5693C28.0733 47.4011 33.1131 42.3817 39.3092 42.3817C45.5054 42.3817 50.5451 47.4011 50.5451 53.5693C50.5451 59.7349 45.5054 64.7544 39.3092 64.7544ZM39.3092 44.2904C34.1653 44.2904 29.9795 48.4533 29.9795 53.5668C29.9795 58.6802 34.1653 62.8406 39.3092 62.8406C44.4532 62.8406 48.639 58.6802 48.639 53.5668C48.639 48.4508 44.4532 44.2904 39.3092 44.2904ZM39.3092 59.9027C35.7817 59.9027 32.9199 57.0664 32.9199 53.5642C32.9199 50.0621 35.7791 47.2258 39.3092 47.2258C42.8368 47.2258 45.6985 50.0621 45.6985 53.5642C45.6985 57.0664 42.8343 59.9027 39.3092 59.9027ZM61.4989 32.935C59.8215 32.935 58.4593 31.5855 58.4593 29.9183C58.4593 28.2511 59.8215 26.9016 61.4989 26.9016C63.1788 26.9016 64.541 28.2511 64.541 29.9183C64.541 31.5855 63.1788 32.935 61.4989 32.935Z" fill="white"/>
</g>
<defs>
<clipPath id="clip0_3_5">
<rect width="123" height="102.218" fill="white"/>
</clipPath>
</defs>
</svg>
